<?xml version="1.0" encoding="UTF-8"?>
<svg id="Layer_1" data-name="Layer 1" xmlns="http://www.w3.org/2000/svg" viewBox="0 0 1559.06 1559.06">
  <defs>
    <style>
      .cls-1 {
        fill: #f5f5f5;
      }
    </style>
  </defs>
  <g>
    <g>
      <path class="cls-1" d="M1283.34,1426.28l32.23-549.57c.37-6.43-10.11-12.38-13.96-16.09l-71.52-68.79-81.98-77.52,7.87-121.59,253.92-130.26,51.87-370.45,97.29-36.48-78.19,443.78-259.26,127.07c-3.62,24.44-4.88,48.28-4.22,74.16l194.98,172.43-53.91,630.71-75.08-77.38-.03-.03ZM1322.46,1411.2l36.62-527.08-130.78-124.89-50.41-47.88,2.87-72.99,3.96-38.52,257.1-130.2,58.08-369.01-6.78-.26-57.62,365.28-257.42,130.38-7.78,116.99,73.99,70.32,77.64,74.42,30.16,30.07-37.97,539.8c7.67-2.01,7.64-6.35,8.33-16.46v.03Z"/>
      <path class="cls-1" d="M1111.2,1245.67l26.2-395.44-36.48-35.79-104.15-101.88,11.43-166.6c.66-9.54,1.69-15.48,11.26-20.25l215.43-106.82,21.74-180.38,101.48-35.65-38.72,253-233.29,117.25-9.39,122.62,105.93,97.23,46.42,43.72-44.38,484.8-73.5-75.83.03.03ZM1152.82,1254.8l28.55-398.94-153.61-150.08,10.54-160.02,236.85-117.8,25.22-179.81c-2.76-2.24-4.77-3.88-5.23-2.44l-2.01,6.35-24.44,171.8-237.51,118.43-10.74,164.76,60.32,58.8,93.29,91.43-28.21,399.95,3.99,3.96c.69.69,2.84-4.97,2.96-6.38h.03Z"/>
    </g>
    <g>
      <path class="cls-1" d="M1031.2,849.2l-13.01,307.05-238.69,186.07-238.55-186.13-13.04-306.65,142.96-130.84,108.46,69.83,108.57-69.88,143.3,130.58v-.03ZM674.97,757.88l104.75,65.49,104.27-65.52,57.65,55.32,49.78,48.4-10.97,272.07-177.45,132.85c-3.53,5.49-3.88,15.65,1.24,22.46,1.52-5.77,2.07-9.54,2.61-17.09l179.95-135.06,6.66-159.82,4.62-118.69-113.37-108.17-105.3,65.75-105.33-66.04-64.34,61.9-49.26,47.94,4.28,94.39,7.27,182.42,178.95,134.22,3.16,17.46c5.37-5.83,5.4-17.06,1.61-21.89l-177.34-132.82-10.69-273.02,46.45-44.32,60.87-58.22-.06-.03Z"/>
      <path class="cls-1" d="M929.61,637.25l-150.02,89.01-149.3-88.27-4.05-135.03c-1.09-36.85,23.29-67.07,48.77-91.57,60.06-50.67,148.36-50.41,208.48-.06,26.05,24.62,49.98,54.57,49.15,91.48l-2.99,134.45-.03-.03ZM895.94,528.07l-3.45,83.3-113.29,61.01-110.99-62.39-5.34-81.29-5.69.09,3.59,84.42,118.89,66.44,119.92-65.23,1.09-62.73c1.06-8.73,1.32-17.29-4.74-23.61h0Z"/>
    </g>
  </g>
  <g>
    <path class="cls-1" d="M275.69,1423.93l-29.21,32.83-46.02,46.76-53.86-630.54,188.17-166.37c7.38-6.52,9.31-13.73,7.53-22.78l-4.45-57.62-259.34-126.47L0,55.36l97.4,36.71,51.76,370.33,253.28,129.89,8.88,120.7-35.76,34.12-73.02,70.29-59.31,57.22,32.49,549.28-.03.03ZM206.84,885.22l76.86-72.01,74.71-71.69,30.3-28.46-7.58-116.85L123.65,465.94,65.92,100.23l-6.86.57,58.28,369.21,257.79,130.26,6.2,111.02-181.48,172.63,37.77,539.83,4.74,3.96c.17.14,1.24-3.62,2.04-6.29l-37.6-536.21h.03Z"/>
    <path class="cls-1" d="M447.83,1243.69l-73.68,77.52-44.12-484.77,107.28-99.35,44.69-39.87-8.67-123.65-233.46-117.45-39.35-253.2,101.77,35.3,22,180.3,225.42,112.74,12.41,182.74-95.25,92.69-45.21,42.37,26.2,394.69-.03-.06ZM406.73,1259.02l6.41-2.04-27.34-403.45,91.8-87.64,61.21-59.31-9.02-127.73-2.79-36.94-237.77-116.5-23.75-177.08c-.75-.86-3.53-3.91-3.22-3.94s-2.7,2.81-3.82,3.88l24.62,181.56,238.23,116.16,10.11,159.53-57.13,54.2-95.42,91.77,17.44,254.58,2.1,31.8,8.33,121.18.03-.03Z"/>
  </g>
</svg>